<?xml version="1.0" encoding="UTF-8" standalone="no"?>
<!-- Created with Inkscape (http://www.inkscape.org/) -->

<svg
   version="1.1"
   id="svg1"
   width="170"
   height="128"
   viewBox="0 0 170 128"
   sodipodi:docname="F7B3D0F102467AF8048F9F5B3454F386.svg"
   inkscape:version="1.3.2 (091e20e, 2023-11-25, custom)"
   xmlns:inkscape="http://www.inkscape.org/namespaces/inkscape"
   xmlns:sodipodi="http://sodipodi.sourceforge.net/DTD/sodipodi-0.dtd"
   xmlns="http://www.w3.org/2000/svg"
   xmlns:svg="http://www.w3.org/2000/svg">
  <defs
     id="defs1" />
  <sodipodi:namedview
     id="namedview1"
     pagecolor="#ffffff"
     bordercolor="#999999"
     borderopacity="1"
     inkscape:showpageshadow="2"
     inkscape:pageopacity="0"
     inkscape:pagecheckerboard="0"
     inkscape:deskcolor="#d1d1d1"
     inkscape:zoom="2.9110512"
     inkscape:cx="100.47917"
     inkscape:cy="58.741667"
     inkscape:window-width="1280"
     inkscape:window-height="778"
     inkscape:window-x="-6"
     inkscape:window-y="-6"
     inkscape:window-maximized="1"
     inkscape:current-layer="g1" />
  <g
     inkscape:groupmode="layer"
     inkscape:label="Image"
     id="g1">
    <g
       id="g17"
       transform="matrix(1.0051657,0,0,1.0045158,-29.246274,-29.547281)">
      <path
         style="fill:#383e42"
         d="m 53.537162,156.36164 c -1.217061,-0.3364 -2.293892,-0.86088 -2.392959,-1.16552 -0.09907,-0.30463 3.91468,-5.81713 8.919437,-12.25 5.004756,-6.43286 23.768801,-31.27394 41.69788,-55.20238 21.88569,-29.209011 33.61755,-44.449891 35.69983,-46.377714 8.63183,-7.991556 18.00609,-11.939391 28.37934,-11.951553 4.99107,-0.0059 10.15931,1.155726 10.15931,2.283336 0,0.368431 -3.30081,4.918396 -7.33514,10.111033 C 164.63054,47.001479 151.29375,64.6375 139.02757,81 c -38.47674,51.3261 -43.645721,58.17738 -45.992252,60.96094 -4.616511,5.47629 -12.468837,10.83205 -19.599863,13.36828 -3.168651,1.12697 -4.667051,1.33414 -10.685455,1.47742 -4.48733,0.10682 -7.794305,-0.0529 -9.212838,-0.445 z M 112,156.68251 c -3.255,-0.64847 -5,-1.26955 -5,-1.77959 0,-1.12032 2.64473,-3.97171 8.29157,-8.93949 6.58413,-5.79236 5.91135,-4.97515 23.02155,-27.96343 28.45272,-38.227437 53.82198,-71.5 54.51644,-71.5 0.87893,0 3.74882,6.063672 4.73293,10 0.41728,1.669113 0.67631,5.304824 0.65902,9.25 -0.042,9.571337 -1.5368,14.266562 -7.38272,23.188784 -3.29547,5.02965 -31.32667,42.664936 -36.35516,48.811216 -10.34504,12.64463 -21.33543,18.57044 -35.23363,18.99728 -3.3,0.10134 -6.5625,0.0722 -7.25,-0.0648 z M 32.513418,136.91862 c -2.034439,-4.37081 -3.016424,-8.37369 -3.357491,-13.68619 -0.513345,-7.99591 2.306885,-18.04726 7.041098,-25.094611 5.709734,-8.499511 39.835666,-53.545296 42.360438,-55.915226 5.219023,-4.898946 10.953901,-8.234343 18.57399,-10.802608 3.763227,-1.268354 5.683397,-1.601841 10.368547,-1.80077 5.49912,-0.23349 10.29728,0.311961 11.97689,1.361524 1.25741,0.785736 -0.28789,2.768672 -6.47512,8.308881 -3.16655,2.835414 -6.93634,6.686442 -8.37732,8.557839 C 103.18348,49.718857 90.131473,67.1125 75.619997,86.5 c -28.127989,37.57932 -40.012076,53.04736 -41.01246,53.38082 -0.365197,0.12173 -1.224332,-1.09354 -2.094119,-2.9622 z"
         id="path18" />
      <path
         style="fill:#181b1f"
         d="m 56.765207,155.92696 c -1.916636,-0.2456 -3.695192,-0.65694 -3.952346,-0.9141 -0.290071,-0.29007 0.530943,-1.75729 2.162854,-3.86521 C 66.046318,136.84794 82.99619,114.42254 106.29504,83.25 121.29941,63.175 135.07743,45.212194 136.91286,43.332654 144.2945,35.773606 152.18943,31.709499 161.75,30.547137 c 4.21976,-0.513034 10.43651,-0.01769 12.30096,0.980136 0.90914,0.486554 0.94696,0.65175 0.31771,1.387519 -2.34833,2.745829 -18.27782,23.779841 -48.00369,63.386189 -25.86026,34.455869 -34.684315,45.862119 -37.520365,48.499999 -6.655373,6.19032 -14.409349,10.03418 -22.505795,11.15674 -4.348157,0.60287 -4.636055,0.60194 -9.573613,-0.0308 z"
         id="path17" />
    </g>
  </g>
</svg>
