<?xml version="1.0" encoding="UTF-8" standalone="no"?>
<!-- Created with Inkscape (http://www.inkscape.org/) -->

<svg
   width="256"
   height="256"
   viewBox="0 0 67.733335 67.733335"
   version="1.1"
   id="svg1"
   inkscape:version="1.3.2 (091e20e, 2023-11-25, custom)"
   sodipodi:docname="logo512.svg"
   xmlns:inkscape="http://www.inkscape.org/namespaces/inkscape"
   xmlns:sodipodi="http://sodipodi.sourceforge.net/DTD/sodipodi-0.dtd"
   xmlns="http://www.w3.org/2000/svg"
   xmlns:svg="http://www.w3.org/2000/svg"
   xmlns:rdf="http://www.w3.org/1999/02/22-rdf-syntax-ns#"
   xmlns:cc="http://creativecommons.org/ns#"
   xmlns:dc="http://purl.org/dc/elements/1.1/">
  <title
     id="title1">Advanced Airspace Security Solution Logo</title>
  <sodipodi:namedview
     id="namedview1"
     pagecolor="#ffffff"
     bordercolor="#999999"
     borderopacity="1"
     inkscape:showpageshadow="false"
     inkscape:pageopacity="0"
     inkscape:pagecheckerboard="0"
     inkscape:deskcolor="#d1d1d1"
     inkscape:document-units="px"
     showborder="false"
     borderlayer="false"
     shape-rendering="auto"
     inkscape:clip-to-page="false"
     inkscape:zoom="1.7981504"
     inkscape:cx="154.32524"
     inkscape:cy="119.01118"
     inkscape:window-width="1280"
     inkscape:window-height="778"
     inkscape:window-x="-6"
     inkscape:window-y="-6"
     inkscape:window-maximized="1"
     inkscape:current-layer="layer1" />
  <defs
     id="defs1" />
  <g
     inkscape:label="Layer 1"
     inkscape:groupmode="layer"
     id="layer1">
    <g
       id="g149"
       transform="matrix(0.04431628,0,0,0.0416298,-1.6068585,0.19996731)">
      <path
         style="fill:#ede3da"
         d="m 139.33333,1505.3333 -102.666663,-0.6666 -0.403322,-2.8265 c -0.382409,-2.6798 23.840801,-34.2879 46.972807,-61.2932 4.45345,-5.1992 12.897181,-15.0992 18.763848,-22 279.48207,-328.7494 628.06049,-591.82927 944.2961,-712.68131 14.5038,-5.54274 30.1278,-11.55195 34.7199,-13.3538 83.0417,-32.58379 226.6851,-64.46875 326.3173,-72.43365 44.4788,-3.55577 51.2944,-2.16012 35.7639,7.32352 -4.2701,2.60754 -20.3676,12.40839 -35.7721,21.77967 -61.8809,37.64506 -170.2851,110.08205 -195.2576,130.47355 l -3.2658,2.66672 5.2658,13.51943 c 3.2222,8.27264 5.8738,13.28658 6.8323,12.91945 0.8615,-0.32998 6.8615,-4.4294 13.3333,-9.10982 43.4528,-31.42524 120.8294,-80.47376 182.7916,-115.87047 65.0425,-37.15636 68.3086,-38.24009 68.3086,-22.66536 0,3.41455 2.173,1.9494 -58.6666,39.55611 -69.9115,43.21426 -190.8626,128.67214 -194.1171,137.15328 -0.3577,0.93215 8.7065,24.75302 20.1426,52.93525 30.1469,74.29125 72.3533,178.29043 87.3519,215.24043 7.1441,17.6 18.2142,44.9 24.6001,60.6667 6.386,15.7666 24.408,60.1666 40.0489,98.6666 15.6409,38.5 37.6893,92.9043 48.9964,120.8983 17.0795,42.2849 21.5107,52.0356 26.1852,57.6187 14.2584,17.0301 44.7074,35.9396 72.1253,44.7914 11.6087,3.7479 16.4101,11.5709 9.4032,15.3209 -3.6922,1.976 -276.3687,2.0182 -280.0587,0.043 -7.9248,-4.2412 -2.4627,-11.3007 12.7543,-16.4844 31.3975,-10.6955 67.4231,-36.6896 77.3863,-55.8377 1.8545,-3.5642 -12.1885,-40.4753 -48.8318,-128.3506 -2.1405,-5.1333 -12.9934,-31.8333 -24.1175,-59.3333 -11.1242,-27.5 -29.367,-72.5 -40.5396,-100 -11.1726,-27.5 -32.4799,-80 -47.3494,-116.6667 -42.0721,-103.74484 -50.8298,-125.19954 -51.8747,-127.08273 -2.1578,-3.88876 -112.1826,100.30623 -151.7924,143.74943 -50.8795,55.8037 -60.15739,66.5598 -102.02763,118.2832 -15.16129,18.7292 -56.75679,73.9223 -69.12107,91.7168 -53.14394,76.4842 -93.54418,143.8112 -128.59231,214.299 -21.10154,42.4388 -14.26666,37.5623 -52.116,37.1831 -40.55718,-0.4062 -38.30565,2.1688 -23.66464,-27.0645 46.65442,-93.1533 112.8232,-193.7157 194.60036,-295.7509 49.411,-61.6513 126.34891,-144.7896 181.94159,-196.60424 50.5108,-47.0782 62.8061,-57.99266 99.2176,-88.0753 C 1128.3338,880.54119 1144,866.6575 1144,865.38975 c 0,-3.22145 -8.8121,-24.54934 -10.3557,-25.06388 -0.7216,-0.24052 -10.8367,7.2023 -22.4781,16.5396 -235.08465,188.55613 -440.94215,422.74023 -559.66304,636.67423 -2.70822,4.8802 -5.72071,9.5343 -6.69442,10.3424 -2.04867,1.7002 -237.4053,2.5426 -405.47541,1.4512 z m 25.40249,-298.5547 c -0.82603,-1.3366 0.28349,-4.6598 5.07168,-15.1907 1.73083,-3.8067 6.29887,-14.1212 10.15118,-22.9212 3.85232,-8.8 10.18277,-23.2 14.06767,-32 3.8849,-8.8 10.48979,-23.8 14.67755,-33.3334 4.18776,-9.5333 14.51578,-32.9333 22.95117,-52 8.43539,-19.0666 18.2065,-41.2666 21.71358,-49.3333 7.58465,-17.4455 36.03706,-82.12643 73.31479,-166.66667 26.62647,-60.38479 30.05188,-68.17278 43.98323,-100 11.44209,-26.14031 25.0006,-56.94768 51.63911,-117.33333 5.49955,-12.46667 17.35934,-39.46667 26.3551,-60 8.99577,-20.53333 20.86763,-47.53333 26.38193,-60 5.51429,-12.46667 14.50311,-32.86667 19.97515,-45.33333 5.47203,-12.46667 11.76729,-26.56667 13.98945,-31.33334 2.22217,-4.76666 7.40457,-16.31666 11.51645,-25.66666 4.11188,-9.35 10.85532,-24.65 14.98543,-34 4.13011,-9.35 11.84542,-26.9 17.14513,-39 17.2616,-39.4107 61.61538,-140.28611 68.56496,-155.93977 C 624.94872,158.3267 628,150.4323 628,149.1838 c 0,-6.53897 -28.8301,-26.26843 -53.33333,-36.4979 -13.70971,-5.72345 -17.50169,-12.50017 -10.52678,-18.812583 3.22294,-2.916816 480.87471,-4.782626 488.43571,-1.907934 4.1618,1.582318 6.6019,7.168666 5.0997,11.675247 -1.2454,3.73633 -2.6865,4.62419 -21.9496,13.52356 -30.5471,14.11243 -47.86358,29.49904 -57.21204,50.83581 -10.49443,23.9523 -10.22334,22.40206 -5.8739,33.59079 3.91743,10.07742 40.83104,101.38558 50.02594,123.74254 7.7594,18.8663 18.9791,46.46614 37.9413,93.33334 9.3462,23.1 20.189,49.8 24.0953,59.33333 29.0543,70.90804 43.2977,106.65404 43.2977,108.66244 0,3.60928 -2.0774,4.656 -20,10.07743 -9.1667,2.77282 -26.8244,8.56626 -39.2395,12.87431 -27.4639,9.53005 -23.2271,12.50122 -39.3771,-27.61418 -10.5169,-26.12314 -39.93646,-98.5659 -80.95073,-199.33333 -5.52189,-13.56667 -14.59028,-35.92459 -20.15198,-49.68426 -5.5617,-13.75968 -10.5643,-24.55968 -11.1169,-24 -0.5526,0.55967 -11.28495,24.41759 -23.84966,53.01759 -12.5647,28.6 -24.85061,56.5 -27.30201,62 -2.4514,5.5 -13.14167,29.8 -23.75617,54 -10.61449,24.2 -23.92228,54.5 -29.57286,67.33333 -28.25956,64.18181 -34.33655,78.00196 -41.33359,94 -13.09438,29.93898 -32.72236,74.51709 -57.93768,131.58525 l -11.01017,24.91858 -18.86749,10.9882 C 515.99693,904.397 359.58072,1024.8183 192.50595,1184.8568 c -23.32984,22.3473 -26.13739,24.5636 -27.77013,21.9218 z"
         id="path163" />
      <path
         style="fill:#e5d9ce"
         d="M 39,1503.9639 C 34.03285,1501.9583 39.333096,1494.435 79.836234,1446 369.54782,1099.5532 721.65914,830.48503 1048.4132,705.85574 c 12.6061,-4.80817 28.0201,-10.72176 34.2535,-13.14132 91.9897,-35.70706 247.3604,-68.54647 347.804,-73.51241 25.0843,-1.24017 25.0482,-0.0914 -0.4801,15.25525 -72.5436,43.61056 -206.2487,132.23169 -220.3977,146.08183 -1.4721,1.44105 6.8508,26.96325 9.7547,29.91267 0.2447,0.24847 8.4701,-5.2464 18.2789,-12.21081 17.0405,-12.09912 57.8815,-39.23723 102.3456,-68.00687 15.6573,-10.13076 113.6573,-67.07502 134.2646,-78.01631 4.0004,-2.12397 6.5002,-0.83444 9.1314,4.71055 3.0136,6.35053 6.1891,3.94797 -55.8823,42.27998 -68.1865,42.10848 -189.6604,127.62071 -196.1061,138.05003 -0.7608,1.23103 0.5061,4.46039 36.9085,94.075 28.662,70.55967 56.547,139.26967 123.3741,303.99997 11.0074,27.1334 30.9518,76.3334 44.3209,109.3334 13.3691,33 27.2469,67.2 30.8395,76 12.7917,31.3328 40.8891,54.2462 84.0224,68.5205 14.131,4.6764 17.6544,13.0462 6.4366,15.2898 -6.9729,1.3946 -270.0384,1.0096 -273.7475,-0.4006 -8.9222,-3.3922 -4.9547,-10.5138 8.2874,-14.8755 30.8947,-10.1764 64.4213,-33.2499 78.0572,-53.7203 5.0717,-7.6137 7.9705,1.0292 -34.4839,-102.8139 -3.8975,-9.5334 -17.4225,-42.8334 -30.0555,-74 C 1258.329,1142.6882 1207.0086,1016.2032 1191.4609,978 c -3.8798,-9.53333 -12.6957,-31.27165 -19.5909,-48.30738 -6.8952,-17.03572 -13.1967,-30.98572 -14.0033,-31 -9.1031,-0.16109 -145.7121,135.97488 -206.68973,205.97408 -91.08907,104.5655 -186.35362,245.8573 -244.30603,362.343 -21.01809,42.2469 -15.63132,38.3236 -52.62003,38.3236 -37.77768,0 -36.13684,1.2618 -25.71514,-19.7745 27.87581,-56.2677 67.22533,-121.9919 113.88931,-190.2255 92.74015,-135.6077 231.14834,-285.8361 365.94842,-397.20094 20.3279,-16.79387 36.9598,-31.23701 36.9598,-32.09585 0,-3.29638 -10.266,-26.70318 -11.7118,-26.70318 -0.8374,0 -9.7949,6.58232 -19.9054,14.62736 -227.24046,180.81751 -427.70463,405.79621 -550.10139,617.37261 -8.48465,14.6667 -16.61024,28.1667 -18.05686,30 l -2.63022,3.3334 -250.46382,0.2543 C 144.74112,1505.0709 40.76939,1504.6784 39,1503.9639 Z M 165.33333,1205.351 c 0,-0.8312 5.62914,-14.2252 12.50919,-29.7644 6.88005,-15.5393 15.53898,-35.1533 19.24207,-43.5866 3.70309,-8.4333 20.34023,-46.2333 36.97143,-84 16.63119,-37.7667 34.72126,-78.86667 40.20016,-91.33333 22.14433,-50.38719 28.8809,-65.68822 45.78793,-104 9.70863,-22 20.79233,-47.2 24.63044,-56 3.83812,-8.8 15.83929,-36.1 26.66927,-60.66667 19.66612,-44.6105 31.35863,-71.18118 58.96711,-134 34.49176,-78.48066 78.09543,-177.24313 85.0624,-192.66667 4.14068,-9.16666 10.39004,-23.26666 13.88747,-31.33333 8.66728,-19.99071 70.63869,-161.00683 86.90345,-197.74907 7.243,-16.36199 13.16908,-30.53557 13.16908,-31.49685 0,-5.15341 -24.10516,-22.45502 -44.83583,-32.18115 -20.83359,-9.77442 -19.55172,-9.01148 -21.80346,-12.97687 -1.80481,-3.17834 -1.73586,-3.790961 0.81054,-7.201622 l 2.78316,-3.727771 241.18946,-0.364715 c 256.3548,-0.387647 246.5226,-0.557745 248.7374,4.303176 2.9507,6.476132 0.5339,9.875362 -10.5981,14.906252 -46.60727,21.06319 -58.71436,32.79643 -74.88512,72.57276 l -3.01552,7.41748 3.65843,9.24919 c 5.94757,15.03655 63.52491,156.87172 126.55201,311.74655 25.2442,62.03191 30.0178,74.78867 28.5287,76.23828 -3.8825,3.77952 -79.9318,27.69238 -81.8775,25.74546 -0.9973,-0.99794 -12.6685,-28.51443 -25.936,-61.14777 -32.75075,-80.55518 -61.58945,-151.57057 -87.0656,-214.39935 -12.18568,-30.05207 -13.69424,-33.3471 -14.72203,-32.1562 -0.26371,0.30555 -4.53433,9.85555 -9.49026,21.22222 -7.94438,18.22084 -31.44636,71.58181 -44.04337,100 -2.43801,5.5 -12.06057,27.4 -21.38348,48.66667 -9.32291,21.26666 -22.63707,51.56666 -29.58703,67.33333 -6.94995,15.76667 -15.51012,35.26667 -19.0226,43.33333 C 789.81464,595.4 777.81945,622.7 766.67113,648 c -24.67181,55.99023 -32.98851,74.90591 -41.3292,94 -3.52369,8.06667 -10.06713,23.03852 -14.54098,33.27079 -4.47386,10.23227 -8.13428,18.75408 -8.13428,18.93736 0,0.18327 -8.85,5.55757 -19.66667,11.94288 -175.96861,103.87802 -322.32732,216.46237 -489.41044,376.47197 -23.07903,22.102 -28.25623,26.2663 -28.25623,22.728 z"
         id="path162" />
      <path
         style="fill:#dcc7b4"
         d="m 649,1504.335 c -32.18276,-0.4783 -30.99753,2.9472 -11.83946,-34.218 52.16587,-101.1978 118.21235,-199.1084 211.42392,-313.4254 36.64838,-44.9465 116.82749,-129.4774 166.74884,-175.79942 49.114,-45.57276 58.02,-53.44254 95.6947,-84.56068 20.7008,-17.09827 34.3053,-29.24948 34.3053,-30.64071 0,-4.12686 -9.7352,-27.02412 -11.4898,-27.02412 -2.6901,0 -47.1746,35.79726 -88.5102,71.2253 C 835.93086,1089.3673 663.0795,1293.1181 549.80709,1494 l -5.26284,9.3333 -253.60546,0.3368 c -242.11971,0.3215 -253.605457,0.2296 -253.605457,-2.0297 0,-3.3383 26.104005,-35.9912 67.931377,-84.9737 123.5693,-144.7076 285.34284,-300.2556 422.24948,-406 C 707.70064,871.49367 866.12668,778.14796 1036,711.06336 c 134.4967,-53.11404 266.6439,-83.61512 397.5151,-91.751 21.2073,-1.3184 20.8788,0.0504 -3.5151,14.64726 -73.0807,43.73022 -211.6626,135.85781 -220.6473,146.68374 -1.8682,2.25106 7.0355,28.34392 10.087,29.56045 0.7918,0.31567 10.3918,-5.8008 21.3333,-13.59217 10.9415,-7.79137 32.7937,-22.55666 48.5603,-32.81176 15.7667,-10.2551 38.5667,-25.0913 50.6667,-32.96932 23.6201,-15.3785 132.0538,-77.62243 136.8072,-78.5311 1.9014,-0.36346 3.596,0.49213 5.0301,2.53955 4.8954,6.9892 4.3025,7.55657 -30.1706,28.86874 -17.7834,10.99412 -42.4622,26.26305 -54.842,33.93097 -46.883,29.039 -166.158,115.53306 -166.158,120.49199 0,0.92325 10.5543,27.67153 23.4539,59.44063 26.4363,65.10673 73.7338,181.64486 94.8733,233.76196 7.7337,19.0667 23.1913,57.1667 34.3503,84.6667 11.159,27.5 35.7106,88.1 54.5592,134.6667 18.8485,46.5666 35.1017,85.9507 36.1181,87.5202 11.3976,17.5989 45.4156,41.0056 72.6452,49.985 15.6712,5.1677 19.9878,9.5253 14.1967,14.3315 -2.6058,2.1626 -276.4174,2.1933 -279.0224,0.031 -5.6528,-4.6914 -1.4162,-9.275 12.8257,-13.8758 35.6501,-11.5166 82.7776,-49.2799 78.7106,-63.0709 -0.582,-1.9734 -13.034,-32.988 -27.6712,-68.9213 -14.6373,-35.9334 -35.4897,-87.2334 -46.3389,-114 C 1288.5181,1215.9 1270.5007,1171.5 1259.3286,1144 c -11.1721,-27.5 -32.479,-80 -47.3485,-116.6667 -58.227,-143.58119 -52.6344,-130.52038 -55.2504,-129.03075 -13.42,7.64199 -127.9673,119.85565 -172.54596,169.03075 -114.08171,125.8446 -208.7107,261.8809 -276.95898,398.1493 l -19.10658,38.1493 -5.05909,0.836 c -2.7825,0.4599 -5.65909,0.7061 -6.39242,0.5473 -0.73334,-0.1589 -13.18334,-0.4649 -27.66667,-0.6802 z M 166.66667,1203.6926 c 0,-0.9023 7.14903,-17.8523 15.88675,-37.6666 8.73771,-19.8143 20.49097,-46.526 26.11835,-59.3593 10.5586,-24.0791 24.96941,-56.7392 37.358,-84.6667 3.90366,-8.8 11.42519,-25.9 16.71453,-38 9.94668,-22.75427 14.88148,-33.98794 39.24292,-89.33333 7.90841,-17.96667 16.60771,-37.76667 19.33177,-44 4.79485,-10.97179 51.69833,-117.52101 66.03073,-150 3.88329,-8.8 11.67612,-26.5 17.31741,-39.33334 28.76102,-65.42824 34.64151,-78.80066 38.69779,-88 2.42512,-5.5 16.80131,-38.2 31.94708,-72.66666 C 490.45777,466.2 505.47122,432.3 508.67522,425.33333 c 6.16856,-13.41272 18.80273,-42.05446 64.69617,-146.66666 15.60312,-35.56667 34.82196,-79.31272 42.70854,-97.21345 7.88657,-17.90074 14.02909,-33.35499 13.65003,-34.34279 -2.36223,-6.15588 -30.17976,-24.64105 -51.04399,-33.91951 -14.63773,-6.50949 -18.05203,-9.70134 -16.09923,-15.050356 2.31001,-6.327494 -6.89683,-6.100082 247.8072,-6.120908 L 1050.7879,92 l 3.2727,3.272727 c 6.5503,6.550323 3.7894,9.866153 -16.063,19.291593 -36.4679,17.31405 -50.37481,29.87688 -61.84868,55.87116 -9.92055,22.47521 -10.015,18.31314 1.04249,45.93637 10.74888,26.85226 36.42039,90.15441 44.72889,110.29482 3.1765,7.7 17.327,42.5 31.4455,77.33333 14.1186,34.83333 36.3871,89.65488 49.4855,121.82567 26.814,65.85732 25.8943,62.54814 18.1487,65.30132 -35.7814,12.71842 -74.4084,24.42931 -76.0911,23.06923 -1.0409,-0.84125 -8.0443,-16.82955 -15.5631,-35.52955 -13.3884,-33.29811 -40.63766,-100.40335 -87.56275,-215.63592 -12.90879,-31.69976 -23.92392,-57.35571 -24.47807,-57.01323 -0.55415,0.34249 -3.85295,7.07865 -7.33067,14.96926 -10.67364,24.21744 -20.69187,46.99998 -42.95303,97.67989 -11.75726,26.76666 -31.41333,71.46666 -43.68017,99.33333 -12.26683,27.86667 -27.5784,62.66667 -34.02571,77.33333 -6.44731,14.66667 -16.34385,37.16667 -21.99231,50 -5.64846,12.83334 -17.7753,40.43334 -26.94854,61.33334 -44.21985,100.74901 -35.86994,86.42941 -57.95216,99.38459 -169.35873,99.35927 -327.88882,220.93824 -482.64232,370.14524 -28.67762,27.6498 -33.1134,31.3331 -33.1134,27.4961 z"
         id="path161" />
      <path
         style="fill:#cdb39b"
         d="m 38.222222,1503.1111 c -1.731816,-1.7318 -0.697261,-3.268 17.775814,-26.3951 C 133.7513,1379.3741 252.48172,1252.7811 351.33333,1161.8229 592.70076,939.72902 826.42465,789.17905 1071.1374,698.17123 1186.7984,655.1573 1310.9078,628.0265 1428,620.15964 c 25.5875,-1.71911 25.7866,-0.79612 2.765,12.82022 C 1351.8757,679.63959 1208,776.35837 1208,782.73105 c 0,3.37381 9.0974,26.08388 11.1117,27.73838 1.0664,0.8759 4.6971,-1.02554 11.555,-6.05137 41.9937,-30.77549 124.0311,-82.95396 186.5136,-118.62872 65.5782,-37.44231 61.4378,-35.59187 64.9431,-29.02396 l 2.5433,4.76538 -3.5283,2.90129 c -1.9405,1.59571 -25.5367,16.40128 -52.436,32.90128 -26.8992,16.5 -62.5115,39.5572 -79.1384,51.23823 -16.6269,11.68102 -34.1307,23.95964 -38.8973,27.28582 -43.3853,30.27426 -80,59.018 -80,62.80253 0,2.28422 9.2747,25.62268 47.691,120.00676 8.8052,21.63333 26.3433,64.83333 38.9736,96.00003 12.6303,31.1666 26.7582,65.9666 31.3954,77.3333 4.6371,11.3667 13.538,33.2667 19.7797,48.6667 6.2417,15.4 20.616,50.8061 31.9429,78.6802 11.3269,27.8741 27.6229,68.0741 36.2134,89.3333 8.5904,21.2592 20.0529,49.6253 25.4721,63.0357 13.2877,32.8817 19.5044,40.6408 47.0027,58.6646 10.6626,6.9888 38.677,20.2429 42.8625,20.2789 7.3934,0.064 13.4848,9.0719 8.0877,11.9604 -3.5852,1.9187 -273.9236,1.9187 -277.5087,0 -6.6254,-3.5459 -2.1004,-8.5781 11.9209,-13.2572 30.2932,-10.1092 67.8278,-37.2092 78.1113,-56.3964 l 2.6112,-4.872 -11.808,-29.0471 C 1331.5918,1320.7649 1296.6287,1234.6635 1279.3391,1192 1256.3615,1135.3007 1232.159,1075.6776 1191.3886,975.33333 1174.703,934.26667 1160.7505,899.91667 1160.3829,899 c -1.3795,-3.44063 -4.6446,-0.99873 -34.4751,25.78318 -70.151,62.98176 -149.05263,146.10022 -210.31026,221.55012 -4.91198,6.05 -12.71718,15.65 -17.34488,21.3334 -65.89746,80.9294 -142.93144,200.5039 -190.45856,295.6355 -10.24976,20.5163 -19.26999,38.0663 -20.04494,39 -2.24333,2.7031 -63.55133,2.4314 -64.59417,-0.2861 -0.82266,-2.1439 11.56815,-27.3025 30.215,-61.3494 104.77848,-191.313 271.09971,-389.11 455.63001,-541.85667 20.7167,-17.14841 37.6667,-31.69178 37.6667,-32.31861 0,-1.76683 -9.5855,-25.61256 -11.0631,-27.52146 -1.6892,-2.18231 -3.47,-1.02435 -24.9369,16.21514 -231.80475,186.1558 -427.86035,407.1646 -551.31269,621.4816 -7.18114,12.4666 -13.96652,23.7166 -15.07863,25 -2.07957,2.3997 -503.666152,3.8314 -506.053158,1.4444 z M 167.55025,1204.351 c -0.36831,-0.596 14.50025,-35.5687 33.04126,-77.7173 18.541,-42.1485 54.4447,-123.7337 79.786,-181.30037 25.34129,-57.56666 54.25416,-123.26666 64.25082,-146 30.61813,-69.6285 39.95638,-90.84826 53.39555,-121.33333 7.11228,-16.13333 16.097,-36.53333 19.96604,-45.33333 3.86904,-8.8 22.46451,-51.1 41.32327,-94 18.85876,-42.9 37.89883,-86.1 42.31127,-96 16.13285,-36.1966 34.79846,-78.36244 41.02089,-92.66667 3.50905,-8.06667 15.4961,-35.36667 26.63789,-60.66667 44.18571,-100.33389 61.38343,-139.86694 61.38343,-141.10443 0,-5.91099 -31.675,-27.2779 -54.66667,-36.87633 -13.34912,-5.57292 -16.75215,-10.51195 -10.89501,-15.812587 3.16994,-2.86876 486.43371,-3.467932 489.29501,-0.60665 5.9815,5.981547 2.5126,10.008047 -16.3398,18.966117 -37.4106,17.77631 -51.07186,30.31663 -63.15411,57.97222 l -8.39034,19.20501 12.65605,31.46166 c 6.96083,17.30391 18.75998,46.46166 26.2203,64.79499 7.4604,18.33334 18.0619,44.43334 23.559,58 5.4971,13.56667 13.8961,34.26667 18.6645,46 4.7684,11.73334 13.1503,32.43334 18.6264,46 5.4762,13.56667 13.168,32.46667 17.0929,42 27.4031,66.55939 43.332,106.74279 42.831,108.04853 -1.1788,3.07172 -79.4577,27.91423 -81.3821,25.82733 -0.9514,-1.03172 -6.0648,-12.67586 -11.363,-25.87586 -8.8561,-22.06387 -24.3035,-60.09758 -90.40087,-222.57946 -13.10651,-32.2187 -24.47252,-58.79362 -25.25779,-59.05538 -0.78528,-0.26176 -4.28149,5.999 -7.76937,13.91279 -9.38852,21.30203 -19.6034,44.54007 -38.56049,87.72205 C 862.09612,428.6 852.45737,450.5 850.01284,456 c -8.52287,19.17577 -39.76098,90.1194 -46.67424,106 -9.32489,21.42038 -98.59283,224.33497 -100.7583,229.03327 -1.00008,2.16981 -4.78113,5.44728 -9.14281,7.92512 -165.87396,94.23179 -331.088,220.67301 -501.66087,383.92981 -12.95619,12.4005 -23.85806,22.0587 -24.22637,21.4628 z"
         id="path160" />
      <path
         style="fill:#b7a18d"
         d="M 47,1503.0128 C 35.950405,1502.3851 35.824757,1502.75 55.666667,1477.8419 152.57112,1356.1951 292.38647,1211.459 419.43385,1101.2722 459.90615,1066.1711 482.11034,1047.8397 534,1006.6886 692.40146,881.0683 882.28861,770.50818 1048.3109,707.23561 c 12.6623,-4.82572 26.8726,-10.28705 31.5785,-12.13629 91.5559,-35.97866 245.5805,-68.79435 349.9566,-74.55995 21.9842,-1.21438 21.857,-0.79442 -4.6216,15.25302 -75.9572,46.03408 -208.5081,134.35097 -216.9701,144.56426 -1.8171,2.19326 7.3916,29.10973 10.6476,31.12204 0.7606,0.47012 4.7689,-1.63117 8.9072,-4.66952 9.738,-7.14958 99.671,-66.99676 122.1909,-81.31358 25.3357,-16.10699 127.2278,-73.71822 128.7333,-72.78771 2.2136,1.36806 5.1151,8.04669 4.1643,9.58517 -0.4993,0.80778 -25.5054,16.69999 -55.5693,35.31601 -72.429,44.84917 -197.995,133.63911 -197.995,140.00581 0,1.05249 7.6646,20.22226 36.6715,91.71846 4.9092,12.1 21.8283,53.8 37.5981,92.66667 15.7697,38.8667 32.4453,79.9667 37.0569,91.3333 4.6115,11.3667 12.289,30.2667 17.0611,42 18.6269,45.7982 32.2054,79.2685 37.5938,92.6667 3.0967,7.7 11.488,28.4 18.6473,46 21.1536,52.0026 41.6192,102.5619 50.4496,124.6335 l 8.2551,20.6334 11.3333,11.4616 c 16.4541,16.6403 42.6971,32.4038 66.9493,40.2147 10.3106,3.3208 13.4353,6.5771 9.7997,10.2124 -3.3449,3.3444 -275.4876,3.3444 -278.8317,0 -3.6281,-3.6284 -0.5104,-6.8916 9.7374,-10.1922 35.2215,-11.3438 83.012,-47.2435 83.012,-62.3578 0,-1.7798 -11.6601,-31.8942 -25.9112,-66.9209 -14.2512,-35.0266 -35.8897,-88.2847 -48.0856,-118.3514 -28.0107,-69.0549 -63.7497,-157.0989 -93.3619,-230 -12.6598,-31.16663 -28.2312,-69.56663 -34.6031,-85.3333 -14.959,-37.01485 -11.8384,-35.20166 -30.8887,-17.94732 -8.6989,7.8788 -23.3162,21.08728 -32.4829,29.3522 -156.09661,140.74092 -312.78698,345.05972 -402.77189,525.20072 -10.24014,20.4997 -19.3556,37.7406 -20.25659,38.3129 -3.14843,2.0001 -60.46959,1.2928 -62.17925,-0.7672 -2.66654,-3.213 32.23266,-68.6752 66.89836,-125.4846 49.59776,-81.2799 123.93416,-181.4213 188.90631,-254.483 13.60503,-15.299 28.03643,-31.5618 32.06976,-36.1395 40.10797,-45.5216 130.2025,-131.36144 188,-179.12182 40.3296,-33.32595 46.6667,-38.91655 46.6667,-41.16957 0,-3.50135 -10.9687,-28.41948 -12.5099,-28.41948 -2.2201,0 -49.5088,38.00143 -86.1568,69.23595 -202.91254,172.93922 -379.05832,378.44332 -490.36749,572.09742 -13.10984,22.8083 -13.5266,23.3541 -18.52206,24.2565 -5.06242,0.9144 -476.079734,1.0002 -492.11045,0.09 z m 121.30881,-301.0985 c 0.41213,-1.4195 13.3254,-31.081 28.69614,-65.9143 40.7059,-92.2481 115.34687,-261.74774 125.64957,-285.33333 4.73639,-10.84283 51.26907,-116.55321 66.02854,-150 6.3955,-14.49301 15.80246,-35.88224 34.01112,-77.33334 C 467.09727,522.25188 495.17034,458.51427 502.26836,442.66667 511.72259,421.55838 525.9574,389.4177 543.30955,350 549.44318,336.06667 560.27233,311.46667 567.37433,295.33333 574.47632,279.2 588.57733,247.1 598.7099,224 c 10.13257,-23.1 21.46798,-48.87289 25.18981,-57.2731 7.96918,-17.98652 8.12391,-19.57626 2.43362,-25.00339 C 615.02469,130.93785 576.38904,108 569.53071,108 c -5.14788,0 -7.41011,-9.518812 -3.08956,-13 3.53864,-2.851172 482.59065,-2.396152 486.67165,0.462257 7.1154,4.983853 4.0466,8.292833 -17.8109,19.204413 -36.71342,18.32785 -49.11433,29.8646 -60.68857,56.45943 -4.37066,10.04275 -7.94666,19.02919 -7.94666,19.96986 0,1.8391 12.47759,33.00306 60.41983,150.90404 27.1439,66.75322 34.2328,84.19447 45.5219,112 6.8479,16.86667 15.7487,38.76667 19.7796,48.66667 26.4775,65.0294 32.9439,81.44136 32.9323,83.58434 -0.011,2.00268 -58.7962,23.15035 -78.3495,28.18572 -1.8936,0.48762 -2.2308,-0.24507 -17.3837,-37.77006 -5.9226,-14.66667 -22.7288,-56.06667 -37.34724,-92 -14.61841,-35.93334 -32.04511,-78.83334 -38.72599,-95.33334 -29.67474,-73.28864 -34.38626,-84.51301 -35.65207,-84.93495 -1.72549,-0.57516 0.2472,-4.86308 -41.96539,91.21797 -19.90709,45.31101 -40.69213,92.58365 -46.18896,105.05032 -5.49684,12.46666 -14.2009,32.26666 -19.34238,44 -5.14147,11.73333 -15.02903,34.23333 -21.97236,50 -6.94333,15.76666 -17.96611,40.81933 -24.49507,55.6726 -6.52896,14.85326 -17.21752,39.15326 -23.75235,54 C 733.61045,719.186 723.42427,742.43333 717.50933,756 699.40526,797.52402 703.35222,792.63625 674,809.88031 508.6373,907.02882 312.95961,1058.5761 186.66667,1187.3074 c -13.64057,13.9039 -19.50957,18.5738 -18.35786,14.6069 z"
         id="path159" />
      <path
         style="fill:#d19864"
         d="m 650.33333,1502.9718 c -30.87737,-0.4239 -29.11326,1.2034 -19.50863,-17.996 93.86219,-187.6288 236.80458,-368.0384 433.9544,-547.69983 4.4605,-4.06488 24.6668,-21.06965 44.9029,-37.78837 43.0015,-35.5272 39.5009,-30.39554 32.503,-47.64764 -7.8313,-19.30656 -2.9098,-21.18673 -54.185,20.70052 -222.52708,181.78472 -427.19594,416.76922 -536.63902,616.12622 -2.8181,5.1333 -6.02017,10.3833 -7.11571,11.6666 -2.43763,2.8555 -505.578603,3.7249 -505.578603,0.8737 0,-1.4878 30.45194,-40.1555 44.002062,-55.8737 4.109196,-4.7666 18.239761,-21.2346 31.401271,-36.5955 275.02784,-320.9872 622.09905,-581.92499 930.3875,-699.49124 9.6484,-3.67943 22.0425,-8.43873 27.5425,-10.57622 91.6545,-35.62025 227.037,-66.74091 327.3333,-75.24486 50.6136,-4.29143 52.9714,-4.13213 41.0323,2.77209 -69.9147,40.43058 -232.0522,148.4394 -233.4441,155.51012 -0.7003,3.55768 10.3986,30.29231 12.5759,30.29231 1.0791,0 9.8836,-5.62332 19.5656,-12.49626 16.794,-11.92148 57.6362,-39.05286 102.2703,-67.93792 C 1352.7,724.20986 1374.6,711.02639 1390,702.2692 c 15.4,-8.75718 40.9526,-23.35023 56.7836,-32.42901 31.039,-17.80035 31.897,-18.13018 34.5016,-13.26347 2.5431,4.75179 1.3026,6.45685 -9.514,13.07683 -114.2479,69.92217 -242.4379,159.0253 -242.4379,168.51536 0,1.13943 7.592,20.76756 16.8711,43.61806 9.2791,22.8505 26.0011,64.04636 37.16,91.54636 11.159,27.49997 30.0457,73.99997 41.9706,103.33337 11.9249,29.3333 28.1197,69.2333 35.9884,88.6666 7.8688,19.4334 20.0331,49.4334 27.0319,66.6667 33.9968,83.711 41.2491,101.6109 60.5035,149.3333 11.3912,28.2334 22.0965,53.7334 23.7896,56.6667 10.4198,18.0531 46.2098,42.6403 77.266,53.0805 9.5787,3.2201 12.4411,5.666 11.0063,9.4049 -1.2885,3.3578 -277.8862,3.3578 -279.1747,0 -1.485,-3.8697 1.3203,-5.9024 15.5534,-11.2694 32.961,-12.429 66.3889,-36.9769 75.9957,-55.8077 l 2.6909,-5.2747 -3.8055,-9.7335 c -3.7132,-9.4974 -11.2933,-28.2019 -41.2278,-101.7334 -8.0605,-19.8 -25.0049,-61.5 -37.6541,-92.6667 -12.6493,-31.1667 -35.5434,-87.5667 -50.8758,-125.3333 -15.3324,-37.7667 -36.0324,-88.7667 -46,-113.33337 -9.9677,-24.56666 -22.1423,-54.56666 -27.0549,-66.66666 -6.4473,-15.88038 -9.5406,-22 -11.1202,-22 -3.8271,0 -68.1668,59.09386 -108.4322,99.59147 -143.59361,144.42146 -261.67759,305.08386 -342.76227,466.35466 -23.45009,46.6403 -15.41937,40.926 -56.7199,40.359 z M 168.30881,1201.9143 c 0.41213,-1.4195 13.3254,-31.081 28.69614,-65.9143 40.7059,-92.2481 115.34687,-261.74774 125.64957,-285.33333 4.73639,-10.84283 51.26907,-116.55321 66.02854,-150 6.3955,-14.49301 15.80246,-35.88224 34.01112,-77.33334 75.16997,-171.12072 78.65417,-179.02196 87.31195,-198 C 517.42017,409.08159 526.35604,388.85542 565.37803,300 641.47142,126.73079 633.58418,148.14227 624.33333,139.9543 611.68413,128.75844 576.05856,108 569.49344,108 c -6.32723,0 -7.20499,-12.202961 -0.99758,-13.868788 9.57851,-2.570499 482.21994,-0.74872 484.83744,1.868788 4.4342,4.43419 2.7153,9.26584 -4.2823,12.03743 -30.3935,12.03805 -60.47584,33.65319 -68.23748,49.03089 -5.53546,10.96707 -14.14685,32.03888 -14.14685,34.61689 0,2.33088 7.53163,21.39513 39.36763,99.64812 7.1602,17.6 19.46,47.9 27.3328,67.33334 7.8727,19.43333 21.6244,53.25529 30.5593,75.1599 15.0849,36.9821 34.3624,84.42531 53.5955,131.90223 4.3957,10.85085 7.7752,20.38003 7.5098,21.17598 -0.474,1.42225 -74.2243,26.42855 -77.9448,26.42855 -2.2267,0 -1.8077,0.9399 -23.7768,-53.33333 -9.3506,-23.1 -28.94633,-71.4 -43.54613,-107.33333 -14.5998,-35.93334 -33.81863,-83.33334 -42.70851,-105.33334 -16.16688,-40.00858 -18.63068,-45.03244 -20.89655,-42.60952 -0.65641,0.7019 -9.74624,20.77619 -20.19963,44.60952 -10.45339,23.83334 -22.43248,51.13334 -26.6202,60.66667 -4.18773,9.53333 -13.93172,31.73333 -21.65333,49.33333 -7.7216,17.6 -18.66764,42.5 -24.32453,55.33334 -17.16639,38.94404 -33.35845,75.74154 -41.21841,93.67147 -4.09992,9.35265 -10.82004,24.65265 -14.93359,34 C 744.19515,694.6338 735.50339,714.40119 728.6641,730 c -4.17988,9.53333 -10.76723,24.53333 -14.63854,33.33333 -3.87132,8.8 -8.39447,19.17278 -10.05145,23.05061 l -3.0127,7.0506 -30.85312,18.41677 C 501.60573,912.43344 311.45196,1060.1129 186.66667,1187.3074 c -13.64057,13.9039 -19.50957,18.5738 -18.35786,14.6069 z"
         id="path158" />
      <path
         style="fill:#ad8b6c"
         d="m 650.33333,1502.9718 c -30.87737,-0.4239 -29.11326,1.2034 -19.50863,-17.996 93.86219,-187.6288 236.80458,-368.0384 433.9544,-547.69983 4.4605,-4.06488 24.6668,-21.06965 44.9029,-37.78837 43.0015,-35.5272 39.5009,-30.39554 32.503,-47.64764 -7.8313,-19.30656 -2.9098,-21.18673 -54.185,20.70052 -222.52708,181.78472 -427.19594,416.76922 -536.63902,616.12622 -2.8181,5.1333 -6.02017,10.3833 -7.11571,11.6666 -2.43763,2.8555 -505.578603,3.7249 -505.578603,0.8737 0,-1.4878 30.45194,-40.1555 44.002062,-55.8737 4.109196,-4.7666 18.239761,-21.2346 31.401271,-36.5955 275.02784,-320.9872 622.09905,-581.92499 930.3875,-699.49124 9.6484,-3.67943 22.0425,-8.43873 27.5425,-10.57622 91.6545,-35.62025 227.037,-66.74091 327.3333,-75.24486 50.6136,-4.29143 52.9714,-4.13213 41.0323,2.77209 -69.9147,40.43058 -232.0522,148.4394 -233.4441,155.51012 -0.7003,3.55768 10.3986,30.29231 12.5759,30.29231 1.0791,0 9.8836,-5.62332 19.5656,-12.49626 16.794,-11.92148 57.6362,-39.05286 102.2703,-67.93792 C 1352.7,724.20986 1374.6,711.02639 1390,702.2692 c 15.4,-8.75718 40.9526,-23.35023 56.7836,-32.42901 31.039,-17.80035 31.897,-18.13018 34.5016,-13.26347 2.5431,4.75179 1.3026,6.45685 -9.514,13.07683 -114.2479,69.92217 -242.4379,159.0253 -242.4379,168.51536 0,1.13943 7.592,20.76756 16.8711,43.61806 9.2791,22.8505 26.0011,64.04636 37.16,91.54636 11.159,27.49997 30.0457,73.99997 41.9706,103.33337 11.9249,29.3333 28.1197,69.2333 35.9884,88.6666 7.8688,19.4334 20.0331,49.4334 27.0319,66.6667 33.9968,83.711 41.2491,101.6109 60.5035,149.3333 11.3912,28.2334 22.0965,53.7334 23.7896,56.6667 10.4198,18.0531 46.2098,42.6403 77.266,53.0805 9.5787,3.2201 12.4411,5.666 11.0063,9.4049 -1.2885,3.3578 -277.8862,3.3578 -279.1747,0 -1.485,-3.8697 1.3203,-5.9024 15.5534,-11.2694 32.961,-12.429 66.3889,-36.9769 75.9957,-55.8077 l 2.6909,-5.2747 -3.8055,-9.7335 c -3.7132,-9.4974 -11.2933,-28.2019 -41.2278,-101.7334 -8.0605,-19.8 -25.0049,-61.5 -37.6541,-92.6667 -12.6493,-31.1667 -35.5434,-87.5667 -50.8758,-125.3333 -15.3324,-37.7667 -36.0324,-88.7667 -46,-113.33337 -9.9677,-24.56666 -22.1423,-54.56666 -27.0549,-66.66666 -6.4473,-15.88038 -9.5406,-22 -11.1202,-22 -3.8271,0 -68.1668,59.09386 -108.4322,99.59147 -143.59361,144.42146 -261.67759,305.08386 -342.76227,466.35466 -23.45009,46.6403 -15.41937,40.926 -56.7199,40.359 z M 172.32017,1196.6667 c 0.61669,-2.312 11.6542,-27.5311 65.64972,-150 10.56311,-23.9586 27.90741,-63.3479 41.39099,-94.00003 4.19363,-9.53334 19.92336,-45.23334 34.95496,-79.33334 15.0316,-34.1 30.47534,-69.2 34.31942,-78 3.84408,-8.8 15.85239,-36.1 26.68514,-60.66666 C 386.15315,710.1 398.15223,682.8 401.98502,674 c 5.92013,-13.59246 44.12547,-100.45886 68.02507,-154.66667 3.87982,-8.8 10.35102,-23.5 14.38043,-32.66666 C 509.39961,429.77262 522.7864,399.37226 531.36117,380 c 12.61181,-28.49281 55.61881,-126.33919 67.98157,-154.66667 5.28071,-12.1 14.78889,-33.77229 21.12928,-48.16066 C 626.81241,162.78431 632,149.78991 632,148.29623 c 0,-6.2452 -28.40521,-26.80012 -50,-36.1816 -18.21676,-7.91395 -20.82677,-10.47647 -15.54197,-15.259147 3.1798,-2.877679 482.96857,-3.54449 486.42487,-0.676034 5.4516,4.524401 1.9117,8.092631 -17.6787,17.820551 -35.69418,17.72446 -49.68319,30.38605 -60.39781,54.66667 -10.97952,24.88093 -15.03386,8.95502 31.22791,122.66666 7.1602,17.6 19.46,47.9 27.3328,67.33334 7.8727,19.43333 21.6244,53.25529 30.5593,75.1599 15.0849,36.9821 34.3624,84.42532 53.5955,131.90223 4.3957,10.85085 7.7752,20.38003 7.5098,21.17598 -0.474,1.42225 -74.2243,26.42855 -77.9448,26.42855 -2.2267,0 -1.8077,0.9399 -23.7768,-53.33333 -9.3506,-23.1 -28.94633,-71.4 -43.54613,-107.33333 -14.5998,-35.93334 -33.82577,-83.33334 -42.72438,-105.33334 -8.8986,-22 -16.74631,-40.75 -17.43936,-41.66666 -3.0794,-4.07301 -3.71965,-2.92987 -22.77179,40.65746 -9.99221,22.8601 -63.70905,145.09384 -84.81983,193.0092 -20.47893,46.48125 -31.66326,71.88844 -56.34601,128 C 742.43666,697.4 728.04809,730.1 723.68799,740 c -4.36009,9.9 -10.90949,24.9 -14.55423,33.33333 -8.9268,20.65518 -8.18665,19.80582 -26.74945,30.69635 -9.01137,5.28683 -27.48431,16.33946 -41.05098,24.5614 -13.56666,8.22193 -29.16666,17.59425 -34.66666,20.82737 -43.2333,25.41429 -136.58003,92.00842 -203.33334,145.05925 -77.49077,61.5842 -128.22628,106.2715 -221.19557,194.8266 -6.36128,6.0593 -10.24735,8.9735 -9.81759,7.3624 z"
         id="path157" />
      <path
         style="fill:#99724e"
         d="M 40,1500.8129 C 40,1498.9578 64.388466,1467.8378 84.523708,1444 171.10277,1341.5003 250.8176,1257.8682 355.31607,1159.9004 567.45938,961.01519 822.52202,794.53817 1045.7908,709.23396 c 9.6484,-3.68635 23.5425,-9.00276 30.8759,-11.81423 99.6184,-38.19205 251.278,-70.82949 351.112,-75.56003 21.5482,-1.02103 21.7075,-1.69593 -3.112,13.18213 -90.7909,54.42446 -216.648,139.60636 -217.7666,147.38757 -0.4994,3.47353 8.6946,27.57436 11.3642,29.78997 1.3727,1.13924 3.5565,0.21043 9.4278,-4.00976 50.811,-36.52239 128.6624,-86.07947 191.4925,-121.89653 l 58.518,-33.35886 2.4524,3.18956 c 2.9261,3.80565 3.0308,4.6202 0.845,6.57486 -1.5481,1.38437 -40.7772,25.92147 -88.6544,55.45167 -17.1034,10.54923 -46.4242,30.79791 -103.0123,71.13947 -27.2454,19.42323 -59.4769,44.73731 -60.5617,47.56415 -0.6217,1.6203 7.7943,22.99377 46.907,119.12607 7.31,17.96667 24.8445,61.1667 38.9657,96 14.1212,34.8333 31.5421,77.7333 38.7132,95.3333 7.1711,17.6 20.5676,50.6 29.7699,73.3334 9.2023,22.7333 25.5001,62.9333 36.2173,89.3333 10.7173,26.4 26.1255,64.5 34.2405,84.6667 18.2228,45.2857 17.9053,44.6632 28.514,55.9089 15.0063,15.9075 40.0416,31.205 65.7751,40.1911 12.8105,4.4734 15.6609,6.9924 11.4208,10.0928 -3.7069,2.7105 -274.2382,2.6872 -276.4882,-0.024 -2.8439,-3.4268 0.059,-6.0163 10.7263,-9.5689 37.7856,-12.5838 84.977,-49.7156 82.0139,-64.5312 -0.6039,-3.0197 -33.4704,-85.0737 -48.8943,-122.0689 -2.1401,-5.1334 -13.2358,-32.4334 -24.657,-60.6667 -11.4211,-28.2333 -29.421,-72.6333 -39.9996,-98.6667 -10.5787,-26.0333 -31.8895,-78.5333 -47.3574,-116.6666 -15.4679,-38.13337 -33.9055,-83.56375 -40.9726,-100.95644 -7.067,-17.39269 -13.6493,-31.93012 -14.6273,-32.30541 -2.7932,-1.07186 -64.8222,55.70629 -107.0389,97.97794 -144.54091,144.72901 -264.24891,307.14641 -344.89802,467.95051 -10.4821,20.9 -19.69184,38.75 -20.46608,39.6667 -1.73463,2.0537 -60.67442,2.4284 -61.93194,0.3937 -0.98001,-1.5857 9.44415,-22.4556 29.39381,-58.8483 74.37161,-135.671 176.72375,-272.0934 297.81201,-396.9458 44.69689,-46.08627 106.03842,-102.87698 151.42362,-140.18978 36.5755,-30.06999 44.6831,-37.32519 44.5658,-39.88047 -0.2022,-4.40262 -11.2941,-28.83723 -13.2434,-29.17403 -4.0744,-0.70399 -80.8818,62.84191 -141.31385,116.91472 -177.38504,158.71886 -346.39551,362.79126 -440.64897,532.06326 -4.28749,7.7 -8.71206,14.75 -9.83238,15.6667 C 539.66406,1503.6155 40,1503.4295 40,1500.8129 Z m 132.32017,-304.1462 c 0.61669,-2.312 11.6542,-27.5311 65.64972,-150 10.56311,-23.9586 27.90741,-63.3479 41.39099,-94.00003 4.19363,-9.53334 19.92336,-45.23334 34.95496,-79.33334 15.0316,-34.1 30.47534,-69.2 34.31942,-78 3.84408,-8.8 15.85239,-36.1 26.68514,-60.66666 C 386.15315,710.1 398.15223,682.8 401.98502,674 c 5.92013,-13.59246 44.12547,-100.45886 68.02507,-154.66667 3.87982,-8.8 10.35348,-23.5 14.3859,-32.66666 9.56903,-21.75272 40.61336,-92.23288 49.62617,-112.66667 3.88145,-8.8 17.99674,-40.9 31.36732,-71.33333 C 578.76005,272.23333 597.48612,229.63333 607.00297,208 631.41956,152.49713 632,151.10848 632,148.19664 c 0,-6.23045 -28.338,-26.66062 -50.10702,-36.12445 -18.08735,-7.86328 -20.71018,-10.44269 -15.45466,-15.198873 2.24998,-2.036208 21.08406,-2.20665 243.83674,-2.20665 261.47314,0 245.21654,-0.458219 244.16064,6.882053 -0.4761,3.30962 -1.0964,3.69078 -20.0708,12.33302 -32.9744,15.01882 -49.43434,30.52791 -61.07095,57.54303 l -8.33731,19.35558 3.7167,9.60983 c 4.15723,10.74884 45.27746,112.40902 51.34686,126.94315 2.1437,5.13334 15.6942,38.43334 30.1122,74 C 1064.5505,436.9 1087.3344,493 1100.7634,526 c 13.5741,33.35634 23.9099,60.51099 23.2758,61.15073 -1.0547,1.06404 -75.3177,26.1826 -77.4089,26.1826 -0.5136,0 -3.6823,-6.75 -7.0415,-15 C 988.31711,472.41157 957.70712,397.01173 933.36028,336.66667 916.12617,293.95092 919.31142,294.07087 901.16181,335.45411 893.79367,352.25435 884.6097,373.2 880.75299,382 867.2925,412.71336 839.6943,475.42191 834.68892,486.66667 831.91428,492.9 819.9086,520.2 808.00964,547.33333 c -11.89897,27.13334 -24.94078,56.83334 -28.98182,66 C 752.5302,673.44036 745.60751,689.15548 739.0881,704 c -4.02582,9.16667 -9.30552,21.16667 -11.73268,26.66667 -2.42716,5.5 -9.32816,21.20793 -15.33554,34.90652 -13.39722,30.54955 -9.90137,26.47001 -35.58062,41.52134 -174.39561,102.21811 -312.30311,208.85257 -494.3015,382.20977 -6.36128,6.0593 -10.24735,8.9735 -9.81759,7.3624 z"
         id="path156" />
      <path
         style="fill:#ca6f18"
         d="m 40.827948,1499.6701 c 4.120855,-6.9546 52.953949,-65.9211 82.460312,-99.5718 12.49146,-14.2459 25.71174,-29.3365 29.37841,-33.5346 51.9068,-59.4299 161.73373,-169.2854 234,-234.0608 C 660.70163,886.87314 942.0566,724.5467 1210,657.48452 c 79.8447,-19.98392 144.6853,-30.27204 223.3333,-35.43582 13.9835,-0.91811 15.7459,-2.48068 -25.3333,22.46124 -79.7485,48.42065 -201.1791,130.75064 -202.4304,137.24778 -0.4782,2.48324 7.853,24.66219 11.2433,29.9315 2.3371,3.63233 3.3163,3.23395 17.1871,-6.99269 31.1187,-22.94312 123.4055,-82.39589 161.9478,-104.32955 18.7287,-10.65814 44.4167,-25.30086 57.0844,-32.53937 25.6748,-14.67099 25.0981,-14.46361 27.2269,-9.79144 1.9199,4.21366 4.5851,2.14358 -30.9258,24.01957 -16.5,10.1646 -40.8,25.15956 -54,33.32214 -13.2,8.16258 -35.7,23.16026 -50,33.32817 -14.3,10.16791 -30.5,21.61987 -36,25.44879 -42.2727,29.42891 -81.3333,59.97365 -81.3333,63.60129 0,2.61987 4.2905,13.49162 39.2981,99.5772 11.1831,27.5 31.8878,78.49997 46.0103,113.33337 14.1226,34.8333 31.5446,77.7333 38.7156,95.3333 12.5777,30.8698 21.0069,51.6396 44.6424,110 6.0883,15.0333 15.0291,37.0833 19.8683,49 19.8386,48.8526 26.4635,65.2375 39.4898,97.6667 21.158,52.6731 38.4056,69.4244 91.3088,88.6819 26.3811,9.603 30.2345,9.3181 -126,9.3181 -133.548,0 -138,-0.08 -138,-2.475 0,-1.9084 2.7471,-3.4618 12,-6.786 32.1684,-11.5565 62.3756,-32.6342 76.7861,-53.5792 6.1404,-8.9248 6.4616,-7.7109 -17.7678,-67.1598 -23.3369,-57.2591 -60.9249,-149.7822 -92.6263,-228 -10.5512,-26.0334 -21.5276,-53.0334 -24.392,-60 -2.8645,-6.9667 -15.1628,-37.2667 -27.3296,-67.3334 -48.352,-119.48716 -48.8548,-120.66663 -51.435,-120.66663 -2.3352,0 -7.5328,4.48922 -51.2354,44.25235 C 947.76574,1084.1029 795.90552,1282.2003 705.06515,1463.6667 l -18.85558,37.6666 h -30.43812 c -20.23355,0 -30.43812,-0.466 -30.43812,-1.3902 0,-2.9418 35.72444,-69.765 51.75196,-96.8029 C 767.43456,1250.7239 890.01195,1100.2261 1026,974.75071 c 51.1333,-47.18045 46.2696,-42.90074 86.355,-75.98526 18.8952,-15.5952 34.9387,-29.44579 35.6523,-30.77907 1.1368,-2.12407 -8.2537,-28.67724 -11.1746,-31.59815 -1.9522,-1.95212 -8.7924,2.50413 -29.6644,19.32552 C 871.61873,1045.5508 678.24824,1264.9206 550.99462,1486.6667 l -8.03419,14 -251.56105,0.3368 c -201.237906,0.2694 -251.363078,0 -250.571432,-1.3334 z M 172.32017,1196.6667 c 0.61669,-2.312 11.6542,-27.5311 65.64972,-150 10.56311,-23.9586 27.90741,-63.3479 41.39099,-94.00003 4.19363,-9.53334 19.92336,-45.23334 34.95496,-79.33334 15.0316,-34.1 30.47335,-69.2 34.31501,-78 6.91973,-15.85086 46.41582,-105.66918 65.66682,-149.33333 11.26206,-25.54404 53.95939,-122.56928 66.00962,-150 4.34904,-9.9 11.80586,-26.93839 16.57072,-37.86309 4.76485,-10.9247 11.08247,-25.0247 14.03915,-31.33333 5.33575,-11.38483 22.12108,-49.19078 40.01956,-90.13691 5.12891,-11.73334 11.31651,-25.83334 13.75023,-31.33334 7.76499,-17.5482 29.94145,-67.9445 39.60373,-90 5.14025,-11.73333 13.77767,-31.39201 19.19428,-43.68596 5.41661,-12.29395 9.84837,-22.81273 9.84837,-23.37507 0,-5.72751 -30.45332,-27.26202 -52.66666,-37.24227 -16.11769,-7.24153 -19.9797,-11.996153 -12.1592,-14.969504 6.29738,-2.394259 482.51833,-0.265902 484.40093,2.164915 2.8459,3.674619 0.2821,5.825949 -16.3577,13.726129 -36.88199,17.51064 -51.40934,30.73663 -63.26634,57.59891 -10.73167,24.31282 -12.97855,12.77534 16.70592,85.78285 5.66522,13.93334 14.07022,34.63334 18.67782,46 4.6076,11.36667 12.4021,30.56667 17.3212,42.66667 8.8054,21.6594 20.6024,50.70168 37.6415,92.66667 19.9661,49.17386 23.3029,57.37688 34.9827,86 20.0535,49.14388 25.8729,63.96666 25.2809,64.39352 -1.17,0.84361 -75.2935,24.99696 -76.6268,24.96907 -0.7695,-0.0161 -3.9999,-6.47926 -7.1786,-14.36259 -3.1788,-7.88334 -18.3631,-45.23334 -33.7429,-83 C 990.96636,476.9 971.58243,429.2 963.27073,408.66667 911.38353,280.48382 919.48461,292.27094 905.30747,324.32971 900.68535,334.7817 893.45466,351.13333 889.23927,360.66667 885.02388,370.2 874.86146,393.3 866.65613,412 c -17.69796,40.33371 -22.79818,51.9346 -48.65362,110.66667 -10.81491,24.56666 -25.05744,56.96666 -31.65008,72 C 779.7598,609.7 771.18831,629.2 767.30468,638 c -3.88363,8.8 -10.47668,23.8 -14.65122,33.33333 -10.47323,23.91753 -29.50685,67.17785 -42.52512,96.65267 l -10.88845,24.65267 -19.95328,11.79153 C 503.501,908.31192 362.70168,1017.3135 182.13776,1189.3043 c -6.36128,6.0593 -10.24735,8.9735 -9.81759,7.3624 z"
         id="path155" />
      <path
         style="fill:#aa5c14"
         d="m 40.827948,1499.6701 c 4.120855,-6.9546 52.953949,-65.9211 82.460312,-99.5718 12.49146,-14.2459 25.71174,-29.3365 29.37841,-33.5346 51.9068,-59.4299 161.73373,-169.2854 234,-234.0608 C 660.70163,886.87314 942.0566,724.5467 1210,657.48452 c 79.8447,-19.98392 144.6853,-30.27204 223.3333,-35.43582 13.9835,-0.91811 15.7459,-2.48068 -25.3333,22.46124 -79.7485,48.42065 -201.1791,130.75064 -202.4304,137.24778 -0.4782,2.48324 7.853,24.66219 11.2433,29.9315 2.3371,3.63233 3.3163,3.23395 17.1871,-6.99269 31.1187,-22.94312 123.4055,-82.39589 161.9478,-104.32955 18.7287,-10.65814 44.4167,-25.30086 57.0844,-32.53937 25.6748,-14.67099 25.0981,-14.46361 27.2269,-9.79144 1.9199,4.21366 4.5851,2.14358 -30.9258,24.01957 -16.5,10.1646 -40.8,25.15956 -54,33.32214 -13.2,8.16258 -35.7,23.16026 -50,33.32817 -14.3,10.16791 -30.5,21.61987 -36,25.44879 -42.2727,29.42891 -81.3333,59.97365 -81.3333,63.60129 0,2.61987 4.2905,13.49162 39.2981,99.5772 11.1831,27.5 31.8878,78.49997 46.0103,113.33337 14.1226,34.8333 31.5446,77.7333 38.7156,95.3333 12.5777,30.8698 21.0069,51.6396 44.6424,110 6.0883,15.0333 15.0291,37.0833 19.8683,49 19.8386,48.8526 26.4635,65.2375 39.4898,97.6667 21.158,52.6731 38.4056,69.4244 91.3088,88.6819 26.3811,9.603 30.2345,9.3181 -126,9.3181 -133.548,0 -138,-0.08 -138,-2.475 0,-1.9084 2.7471,-3.4618 12,-6.786 32.1684,-11.5565 62.3756,-32.6342 76.7861,-53.5792 6.1404,-8.9248 6.4616,-7.7109 -17.7678,-67.1598 -23.3369,-57.2591 -60.9249,-149.7822 -92.6263,-228 -10.5512,-26.0334 -21.5276,-53.0334 -24.392,-60 -2.8645,-6.9667 -15.1628,-37.2667 -27.3296,-67.3334 -48.352,-119.48716 -48.8548,-120.66663 -51.435,-120.66663 -2.3352,0 -7.5328,4.48922 -51.2354,44.25235 C 947.76574,1084.1029 795.90552,1282.2003 705.06515,1463.6667 l -18.85558,37.6666 h -30.43812 c -20.23355,0 -30.43812,-0.466 -30.43812,-1.3902 0,-2.9418 35.72444,-69.765 51.75196,-96.8029 C 767.43456,1250.7239 890.01195,1100.2261 1026,974.75071 c 51.1333,-47.18045 46.2696,-42.90074 86.355,-75.98526 18.8952,-15.5952 34.9387,-29.44579 35.6523,-30.77907 1.1368,-2.12407 -8.2537,-28.67724 -11.1746,-31.59815 -1.9522,-1.95212 -8.7924,2.50413 -29.6644,19.32552 C 871.61873,1045.5508 678.24824,1264.9206 550.99462,1486.6667 l -8.03419,14 -251.56105,0.3368 c -201.237906,0.2694 -251.363078,0 -250.571432,-1.3334 z M 588.78143,850.33333 C 588.36114,845.75 586.79455,826.7 585.30011,808 574.7643,676.16496 551.14614,548.9179 519.1342,451.51928 510.325,424.71668 508.63489,433.402 533.7001,376.66667 599.22141,228.35863 633.33333,150.05826 633.33333,147.969 c 0,-6.15214 -24.99443,-24.15953 -50.41471,-36.32159 -16.82615,-8.05029 -19.45851,-10.34562 -15.9213,-13.882828 3.22536,-3.225358 483.52858,-2.917763 485.88958,0.311173 2.8297,3.869745 0.4096,5.925335 -16.3362,13.875815 -36.88199,17.51064 -51.40934,30.73663 -63.26634,57.59891 -10.73167,24.31282 -12.97855,12.77534 16.70592,85.78285 5.66522,13.93334 14.07022,34.63334 18.67782,46 4.6076,11.36667 12.4021,30.56667 17.3212,42.66667 8.8054,21.6594 20.6024,50.70168 37.6415,92.66667 19.9661,49.17386 23.3029,57.37688 34.9827,86 20.0535,49.14388 25.8729,63.96666 25.2809,64.39352 -1.17,0.84361 -75.2935,24.99696 -76.6268,24.96907 -0.7695,-0.0161 -3.9999,-6.47926 -7.1786,-14.36259 -3.1788,-7.88334 -18.3631,-45.23334 -33.7429,-83 C 990.96636,476.9 971.58243,429.2 963.27073,408.66667 911.38353,280.48382 919.48461,292.27094 905.30747,324.32971 900.68535,334.7817 893.45466,351.13333 889.23927,360.66667 885.02388,370.2 874.86146,393.3 866.65613,412 c -17.69796,40.33371 -22.79818,51.9346 -48.65362,110.66667 -10.81491,24.56666 -25.05744,56.96666 -31.65008,72 C 779.7598,609.7 771.18831,629.2 767.30468,638 c -3.88363,8.8 -10.47668,23.8 -14.65122,33.33333 -10.47323,23.91753 -29.50685,67.17785 -42.52512,96.65267 l -10.88845,24.65267 -19.95328,11.79153 c -22.04367,13.02686 -65.57887,39.52326 -79.66152,48.4836 -4.97287,3.16408 -9.27511,5.75287 -9.56054,5.75287 -0.28543,0 -0.86284,-3.75 -1.28312,-8.33334 z"
         id="path154" />
      <path
         style="fill:#885629"
         d="m 40.827948,1499.6701 c 4.120855,-6.9546 52.953949,-65.9211 82.460312,-99.5718 12.49146,-14.2459 25.71174,-29.3365 29.37841,-33.5346 51.9068,-59.4299 161.73373,-169.2854 234,-234.0608 C 660.70163,886.87314 942.0566,724.5467 1210,657.48452 c 79.8447,-19.98392 144.6853,-30.27204 223.3333,-35.43582 13.9835,-0.91811 15.7459,-2.48068 -25.3333,22.46124 -79.7485,48.42065 -201.1791,130.75064 -202.4304,137.24778 -0.4782,2.48324 7.853,24.66219 11.2433,29.9315 2.3371,3.63233 3.3163,3.23395 17.1871,-6.99269 31.1187,-22.94312 123.4055,-82.39589 161.9478,-104.32955 18.7287,-10.65814 44.4167,-25.30086 57.0844,-32.53937 25.6748,-14.67099 25.0981,-14.46361 27.2269,-9.79144 1.9199,4.21366 4.5851,2.14358 -30.9258,24.01957 -16.5,10.1646 -40.8,25.15956 -54,33.32214 -13.2,8.16258 -35.7,23.16026 -50,33.32817 -14.3,10.16791 -30.5,21.61987 -36,25.44879 -42.2727,29.42891 -81.3333,59.97365 -81.3333,63.60129 0,2.61987 4.2905,13.49162 39.2981,99.5772 11.1831,27.5 31.8878,78.49997 46.0103,113.33337 14.1226,34.8333 31.5446,77.7333 38.7156,95.3333 12.5777,30.8698 21.0069,51.6396 44.6424,110 6.0883,15.0333 15.0291,37.0833 19.8683,49 19.8386,48.8526 26.4635,65.2375 39.4898,97.6667 21.158,52.6731 38.4056,69.4244 91.3088,88.6819 26.3811,9.603 30.2345,9.3181 -126,9.3181 -133.548,0 -138,-0.08 -138,-2.475 0,-1.9084 2.7471,-3.4618 12,-6.786 32.1684,-11.5565 62.3756,-32.6342 76.7861,-53.5792 6.1404,-8.9248 6.4616,-7.7109 -17.7678,-67.1598 -23.3369,-57.2591 -60.9249,-149.7822 -92.6263,-228 -10.5512,-26.0334 -21.5276,-53.0334 -24.392,-60 -2.8645,-6.9667 -15.1628,-37.2667 -27.3296,-67.3334 -48.352,-119.48716 -48.8548,-120.66663 -51.435,-120.66663 -2.3352,0 -7.5328,4.48922 -51.2354,44.25235 C 947.76574,1084.1029 795.90552,1282.2003 705.06515,1463.6667 l -18.85558,37.6666 h -30.43812 c -20.23355,0 -30.43812,-0.466 -30.43812,-1.3902 0,-2.9418 35.72444,-69.765 51.75196,-96.8029 C 767.43456,1250.7239 890.01195,1100.2261 1026,974.75071 c 51.1333,-47.18045 46.2696,-42.90074 86.355,-75.98526 18.8952,-15.5952 34.9387,-29.44579 35.6523,-30.77907 1.1368,-2.12407 -8.2537,-28.67724 -11.1746,-31.59815 -1.9522,-1.95212 -8.7924,2.50413 -29.6644,19.32552 C 871.61873,1045.5508 678.24824,1264.9206 550.99462,1486.6667 l -8.03419,14 -251.56105,0.3368 c -201.237906,0.2694 -251.363078,0 -250.571432,-1.3334 z M 613.88758,835.8162 c 0.43092,-3.93224 1.68115,-18.24953 2.77829,-31.8162 2.25781,-27.91899 19.31902,-235.59362 27.38451,-333.33333 11.74073,-142.27717 17.57871,-213.2992 23.28991,-283.33334 3.28913,-40.33333 6.43312,-77.23333 6.98664,-82 l 1.0064,-8.666663 187.49959,-0.337934 c 169.88338,-0.306184 187.66458,-0.139095 189.25598,1.77843 2.8798,3.469957 0.1843,5.710637 -15.0592,12.517917 -35.3063,15.76679 -53.21647,32.10093 -64.98774,59.26926 -9.93471,22.92951 -11.81558,12.35845 13.06678,73.43899 C 990.18728,255.8 1000.184,280.4 1007.3237,298 c 13.1746,32.47678 19.6463,48.41632 37.6238,92.66667 5.5117,13.56666 13.9192,34.26666 18.6833,46 19.9661,49.17386 23.3029,57.37688 34.9827,86 20.0535,49.14388 25.8729,63.96666 25.2809,64.39352 -1.17,0.84361 -75.2935,24.99696 -76.6268,24.96907 -0.7695,-0.0161 -3.9999,-6.47926 -7.1786,-14.36259 -3.1788,-7.88334 -18.3631,-45.23334 -33.7429,-83 C 990.96636,476.9 971.58243,429.2 963.27073,408.66667 911.99433,281.99276 918.1324,292.33444 908.00316,315.54937 898.81605,336.60504 877.70342,384.63904 870.00507,402 c -3.90218,8.8 -10.50177,23.8 -14.66575,33.33333 -7.67027,17.56087 -10.52793,24.06088 -23.74053,54 -4.04539,9.16667 -10.77079,24.46667 -14.94533,34 -4.17454,9.53334 -12.86997,29.33334 -19.32316,44 -6.45319,14.66667 -15.15319,34.46667 -19.33333,44 -4.18014,9.53334 -13.00721,29.63334 -19.6157,44.66667 -6.6085,15.03333 -15.30783,34.83333 -19.33186,44 -4.02402,9.16667 -9.34246,21.16667 -11.81874,26.66667 -2.47628,5.5 -9.85483,22.3 -16.39678,37.33333 l -11.89444,27.33333 -16.46973,9.85197 c -9.05834,5.41859 -27.86972,16.76588 -41.80305,25.21621 -13.93334,8.45034 -25.83492,15.63424 -26.44796,15.96423 -0.61304,0.32999 -0.76205,-2.6173 -0.33113,-6.54954 z"
         id="path153" />
      <path
         style="fill:#9d5513"
         d="m 630.33333,1500.3783 c -4.70303,-0.7124 -5.36549,1.3624 7.49738,-23.4819 68.58714,-132.4744 151.42166,-249.3835 272.76885,-384.9744 47.69508,-53.2936 134.53034,-135.90603 198.45874,-188.80767 47.4422,-39.25909 43.5544,-33.125 34.5088,-54.44766 -7.4824,-17.63758 -6.2191,-17.7952 -33.5671,4.18827 -184.86203,148.60006 -354.72498,326.91536 -469.1344,492.47836 -6.33446,9.1667 -13.55335,19.0913 -16.04198,22.0547 -10.46399,12.4601 -59.18457,90.0729 -76.75912,122.2787 L 542.42563,1500 H 292.54615 c -137.43372,0 -249.879483,-0.3267 -249.879483,-0.726 0,-0.7698 28.173458,-36.2282 38.620911,-48.6073 C 209.77171,1298.426 363.61119,1145.9094 490.16174,1045.3084 492.45069,1043.4888 503.19072,1034.8 514.02846,1026 579.37569,972.93955 666.28697,911.15474 741.33333,864.41004 841.87113,801.7873 949.95506,747.38657 1048.3109,709.90228 c 12.6623,-4.82572 26.9224,-10.31406 31.6891,-12.19632 47.0405,-18.57523 146.072,-45.4327 212.1178,-57.52658 51.4151,-9.4148 152.8524,-21.07239 149.2155,-17.14847 -0.3666,0.39562 -12.9666,8.15092 -28,17.23401 -76.9422,46.48823 -204.7201,132.67081 -208.2767,140.47672 -0.9637,2.11504 0.1896,6.35892 4.9835,18.33845 7.5617,18.89609 7.6138,18.91249 23.3738,7.36826 13.6258,-9.98096 46.0239,-31.6759 93.2528,-62.4455 38.4078,-25.0227 148.5341,-88.59484 151.501,-87.45634 5.1473,1.97521 1.0922,5.84474 -18.9893,18.12016 -11.3968,6.96666 -25.6243,15.7213 -31.6166,19.45476 -5.9923,3.73345 -21.2591,13.20566 -33.9261,21.04935 -12.6671,7.8437 -39.6671,26.03923 -60,40.43452 -20.333,14.39529 -39.969,28.27403 -43.6357,30.84164 -28.5378,19.98379 -63.3333,47.97846 -63.3333,50.95465 0,1.37159 6.6372,18.86734 14.7494,38.87944 8.1122,20.0121 21.6077,53.32656 29.99,74.03213 8.3823,20.70557 21.1844,52.20554 28.4492,70.00004 7.2647,17.7944 20.8616,51.2535 30.2153,74.3535 17.2254,42.54 29.7313,73.3789 53.2588,131.3333 7.1451,17.6 16.1512,39.8 20.0138,49.3333 3.8625,9.5334 11.053,27.2334 15.9787,39.3334 4.9258,12.1 17.8348,43.9663 28.6866,70.814 23.3879,57.862 21.939,54.8942 32.1074,65.7643 16.2762,17.3994 49.2639,37.0154 72.8841,43.3404 17.6986,4.7393 8.8156,5.4143 -71.3333,5.4209 -42.35,0 -93.8,0.03 -114.3334,0.058 -93.8568,0.131 -95.0393,0.021 -73.6666,-6.8284 30.1667,-9.6681 64.8414,-33.6885 79.6033,-55.1442 5.8038,-8.4357 5.5148,-9.866 -9.4493,-46.7588 -7.4362,-18.3333 -22.7666,-56.1333 -34.0675,-84 -11.3009,-27.8666 -22.8825,-56.3666 -25.7369,-63.3333 -2.8544,-6.9667 -14.5539,-35.7667 -25.9988,-64 -11.445,-28.2333 -23.1475,-57.0333 -26.0056,-64 -2.8581,-6.9667 -14.3102,-35.1667 -25.449,-62.6667 -62.9268,-155.35631 -64.6006,-159.31463 -67.5514,-159.74705 -7.2894,-1.06818 -120.1874,107.70625 -177.56602,171.08045 -113.92712,125.8314 -212.2207,267.1781 -277.83329,399.5256 -16.06598,32.4068 -17.94873,35.5966 -21.44552,36.3333 -4.16055,0.8767 -45.85631,0.7582 -51.83334,-0.1473 z M 613.88758,835.8162 c 0.43092,-3.93224 1.68115,-18.24953 2.77829,-31.8162 2.25781,-27.91899 19.31902,-235.59362 27.38451,-333.33333 11.74073,-142.27717 17.57871,-213.2992 23.28991,-283.33334 3.28913,-40.33333 6.43312,-77.23333 6.98664,-82 l 1.0064,-8.666663 187.49959,-0.337934 c 169.88338,-0.306184 187.66458,-0.139095 189.25598,1.77843 2.8798,3.469957 0.1843,5.710637 -15.0592,12.517917 -35.3063,15.76679 -53.21647,32.10093 -64.98774,59.26926 -10.4457,24.10889 -12.712,12.67179 17.0621,86.10566 33.09354,81.62081 54.52794,134.43379 62.23094,153.33333 6.37,15.62882 25.7076,63.1737 43.3837,106.66667 6.4078,15.76667 15.3292,37.63165 19.8252,48.58886 10.0018,24.37514 12.1686,20.79148 -18.5885,30.7437 -14.2755,4.6192 -30.9038,10.17245 -36.9518,12.34056 -13.5022,4.84029 -9.1507,11.34548 -35.0116,-52.33979 C 1012.0805,526 999.04326,493.9 995.0204,484 c -4.02286,-9.9 -10.4684,-25.8 -14.32343,-35.33333 -3.85503,-9.53334 -12.87906,-31.73334 -20.05339,-49.33334 -7.17434,-17.6 -18.96492,-46.68081 -26.20129,-64.62403 -16.85136,-41.78447 -16.63569,-41.6282 -26.43997,-19.15802 -9.18595,21.05304 -30.29898,69.08795 -37.99725,86.44872 -3.90218,8.8 -10.50177,23.8 -14.66575,33.33333 -7.67027,17.56087 -10.52793,24.06088 -23.74053,54 -4.04539,9.16667 -10.77079,24.46667 -14.94533,34 -4.17454,9.53334 -12.86997,29.33334 -19.32316,44 -6.45319,14.66667 -15.15319,34.46667 -19.33333,44 -4.18014,9.53334 -13.00721,29.63334 -19.6157,44.66667 -6.6085,15.03333 -15.30783,34.83333 -19.33186,44 -4.02402,9.16667 -9.34246,21.16667 -11.81874,26.66667 -2.47628,5.5 -9.85483,22.3 -16.39678,37.33333 l -11.89444,27.33333 -16.46973,9.85197 c -9.05834,5.41859 -27.86972,16.76588 -41.80305,25.21621 -13.93334,8.45034 -25.83492,15.63424 -26.44796,15.96423 -0.61304,0.32999 -0.76205,-2.6173 -0.33113,-6.54954 z"
         id="path152" />
      <path
         style="fill:#7a420e"
         d="m 630.33333,1500.3783 c -4.70303,-0.7124 -5.36549,1.3624 7.49738,-23.4819 68.58714,-132.4744 151.42166,-249.3835 272.76885,-384.9744 47.69508,-53.2936 134.53034,-135.90603 198.45874,-188.80767 47.4422,-39.25909 43.5544,-33.125 34.5088,-54.44766 -7.4824,-17.63758 -6.2191,-17.7952 -33.5671,4.18827 -184.86203,148.60006 -354.72498,326.91536 -469.1344,492.47836 -6.33446,9.1667 -13.55335,19.0913 -16.04198,22.0547 -10.46399,12.4601 -59.18457,90.0729 -76.75912,122.2787 L 542.42563,1500 H 292.54615 c -137.43372,0 -249.879483,-0.3267 -249.879483,-0.726 0,-0.7698 28.173458,-36.2282 38.620911,-48.6073 C 209.77171,1298.426 363.61119,1145.9094 490.16174,1045.3084 492.45069,1043.4888 503.19072,1034.8 514.02846,1026 579.37569,972.93955 666.28697,911.15474 741.33333,864.41004 841.87113,801.7873 949.95506,747.38657 1048.3109,709.90228 c 12.6623,-4.82572 26.9224,-10.31406 31.6891,-12.19632 47.0405,-18.57523 146.072,-45.4327 212.1178,-57.52658 51.4151,-9.4148 152.8524,-21.07239 149.2155,-17.14847 -0.3666,0.39562 -12.9666,8.15092 -28,17.23401 -76.9422,46.48823 -204.7201,132.67081 -208.2767,140.47672 -0.9637,2.11504 0.1896,6.35892 4.9835,18.33845 7.5617,18.89609 7.6138,18.91249 23.3738,7.36826 13.6258,-9.98096 46.0239,-31.6759 93.2528,-62.4455 38.4078,-25.0227 148.5341,-88.59484 151.501,-87.45634 5.1473,1.97521 1.0922,5.84474 -18.9893,18.12016 -11.3968,6.96666 -25.6243,15.7213 -31.6166,19.45476 -5.9923,3.73345 -21.2591,13.20566 -33.9261,21.04935 -12.6671,7.8437 -39.6671,26.03923 -60,40.43452 -20.333,14.39529 -39.969,28.27403 -43.6357,30.84164 -28.5378,19.98379 -63.3333,47.97846 -63.3333,50.95465 0,1.37159 6.6372,18.86734 14.7494,38.87944 8.1122,20.0121 21.6077,53.32656 29.99,74.03213 8.3823,20.70557 21.1844,52.20554 28.4492,70.00004 7.2647,17.7944 20.8616,51.2535 30.2153,74.3535 17.2254,42.54 29.7313,73.3789 53.2588,131.3333 7.1451,17.6 16.1512,39.8 20.0138,49.3333 3.8625,9.5334 11.053,27.2334 15.9787,39.3334 4.9258,12.1 17.8348,43.9663 28.6866,70.814 23.3879,57.862 21.939,54.8942 32.1074,65.7643 16.2762,17.3994 49.2639,37.0154 72.8841,43.3404 17.6986,4.7393 8.8156,5.4143 -71.3333,5.4209 -42.35,0 -93.8,0.03 -114.3334,0.058 -93.8568,0.131 -95.0393,0.021 -73.6666,-6.8284 30.1667,-9.6681 64.8414,-33.6885 79.6033,-55.1442 5.8038,-8.4357 5.5148,-9.866 -9.4493,-46.7588 -7.4362,-18.3333 -22.7666,-56.1333 -34.0675,-84 -11.3009,-27.8666 -22.8825,-56.3666 -25.7369,-63.3333 -2.8544,-6.9667 -14.5539,-35.7667 -25.9988,-64 -11.445,-28.2333 -23.1475,-57.0333 -26.0056,-64 -2.8581,-6.9667 -14.3102,-35.1667 -25.449,-62.6667 -62.9268,-155.35631 -64.6006,-159.31463 -67.5514,-159.74705 -7.2894,-1.06818 -120.1874,107.70625 -177.56602,171.08045 -113.92712,125.8314 -212.2207,267.1781 -277.83329,399.5256 -16.06598,32.4068 -17.94873,35.5966 -21.44552,36.3333 -4.16055,0.8767 -45.85631,0.7582 -51.83334,-0.1473 z M 1046.8282,610.1409 c -0.6484,-0.81083 -10.9247,-25.47423 -22.8362,-54.80757 C 1012.0805,526 999.04326,493.9 995.0204,484 990.99754,474.1 984.55339,458.2 980.70006,448.66667 976.84673,439.13333 967.57388,416.33333 960.09374,398 c -7.48015,-18.33333 -19.01276,-46.83333 -25.62803,-63.33333 -6.61526,-16.5 -12.81668,-31.23791 -13.78093,-32.75091 -1.86536,-2.92695 40.88375,-103.55799 43.98189,-103.53299 0.73333,0.006 3.7895,6.22222 6.79148,13.814 3.00198,7.59178 11.78987,29.40323 19.52863,48.4699 7.73877,19.06666 18.63262,45.91666 24.20852,59.66666 16.7652,41.34237 30.1018,74.18582 36.1397,89 6.37,15.62882 25.7076,63.1737 43.3837,106.66667 6.4078,15.76667 15.3292,37.63165 19.8252,48.58886 10.0018,24.37514 12.1686,20.79148 -18.5885,30.7437 -14.2755,4.6192 -30.9038,10.17245 -36.9518,12.34056 -7.8,2.79616 -11.3392,3.51349 -12.1754,2.46778 z"
         id="path151" />
      <path
         style="fill:#59310a"
         d="M 620.83401,1359.6667 C 620.43424,1354.35 619.44649,1340.1 618.63901,1328 614.72975,1269.4207 600.58498,1193.9348 584.65213,1146.6235 582.09346,1139.0257 580,1131.4213 580,1129.7248 c 0,-8.616 -27.75461,-71.1253 -44.80789,-100.9169 -7.44057,-12.9985 -7.51199,-13.2235 -4.86613,-15.3333 71.82039,-57.26987 170.29738,-125.10252 248.34069,-171.06138 38.15306,-22.46793 43.23513,-25.34611 71.75613,-40.63837 68.67133,-36.81986 134.74705,-67.28 199.5772,-92.00275 12.4667,-4.75413 26.2667,-10.04727 30.6667,-11.76254 12.2393,-4.77133 46.137,-16.0446 64,-21.28431 8.8,-2.58129 19,-5.57518 22.6666,-6.65308 70.7574,-20.80094 171.3259,-39.73956 237.3334,-44.69362 10.2666,-0.77054 22.5666,-1.72732 27.3333,-2.12617 10.2936,-0.86131 10.3931,-0.97604 -9.3333,10.7564 -72.0237,42.83651 -215.7869,139.32524 -218.0988,146.38013 -0.4306,1.3139 -12.5845,11.26656 -27.0087,22.11702 -14.4242,10.85047 -29.0989,22.52546 -32.6104,25.94443 -3.6705,3.5738 -7.638,6.22229 -9.3333,6.23038 -3.0263,0.0144 -28.4217,19.81468 -70.9488,55.31729 -161.37344,134.71817 -317.98291,302.90547 -423.36965,454.66867 -20.51419,29.5416 -19.42943,28.7464 -20.46304,15 z"
         id="path150" />
      <path
         style="fill:#281504"
         d="m 623.47593,1365.1908 c -0.32276,-1.0216 -0.95174,-10.5575 -1.39773,-21.1908 -2.52987,-60.3171 -15.44218,-134.8664 -33.30617,-192.2935 -3.35795,-10.7947 -6.10536,-20.1478 -6.10536,-20.7847 0,-1.3068 9.86044,-7.4704 68.66666,-42.9222 C 817.59581,987.76704 974.26,903.6776 1104.6667,844.67318 1133.4899,831.63167 1136,830.62023 1136,832.04738 c 0,0.70728 -0.6456,1.28595 -1.4346,1.28595 -1.9127,0 -11.9037,7.76741 -47.8229,37.17927 -173.45542,142.0315 -326.31087,303.9786 -443.75967,470.1541 -20.77675,29.3965 -18.76616,26.8688 -19.5069,24.5241 z"
         id="path149" />
    </g>
  </g>
  <metadata
     id="metadata1">
    <rdf:RDF>
      <cc:Work
         rdf:about="">
        <dc:title>Advanced Airspace Security Solution Logo</dc:title>
        <dc:date>2024/01/17</dc:date>
        <dc:creator>
          <cc:Agent>
            <dc:title>rainbowflesh</dc:title>
          </cc:Agent>
        </dc:creator>
        <dc:rights>
          <cc:Agent>
            <dc:title></dc:title>
          </cc:Agent>
        </dc:rights>
        <dc:description> &quot;Advanced Airspace Security Solution&quot; series product logo</dc:description>
        <dc:contributor>
          <cc:Agent>
            <dc:title>rainbowflesh</dc:title>
          </cc:Agent>
        </dc:contributor>
        <dc:subject>
          <rdf:Bag>
            <rdf:li>logo icon</rdf:li>
          </rdf:Bag>
        </dc:subject>
        <dc:language>english Chinese</dc:language>
        <dc:identifier>rainbowflesh</dc:identifier>
        <dc:publisher>
          <cc:Agent>
            <dc:title>rainbowflesh</dc:title>
          </cc:Agent>
        </dc:publisher>
      </cc:Work>
    </rdf:RDF>
  </metadata>
</svg>
